<svg width="16" height="16" viewBox="0 0 16 16" fill="none" xmlns="http://www.w3.org/2000/svg">
    <path fill-rule="evenodd" clip-rule="evenodd" d="M1.59998 0.8C1.59998 0.358172 1.95815 0 2.39998 0H9.59931C9.81148 0 10.0156 0.0842855 10.1657 0.234315L14.1657 4.23431C14.3157 4.38434 14.4 4.58783 14.4 4.8V15.2C14.4 15.6418 14.0418 16 13.6 16H2.39998C1.95815 16 1.59998 15.6418 1.59998 15.2V0.8ZM9.26861 1.6H3.19998V14.4H12.8V5.13137L9.26861 1.6Z" fill="#0094B6"/>
    <path fill-rule="evenodd" clip-rule="evenodd" d="M9.29384 0.460914C9.59278 0.337089 9.93687 0.405533 10.1657 0.634332L13.7657 4.23433C13.9945 4.46313 14.0629 4.80722 13.9391 5.10616C13.8153 5.4051 13.5236 5.60002 13.2 5.60002H9.59999C9.15816 5.60002 8.79999 5.24185 8.79999 4.80002V1.20002C8.79999 0.876447 8.9949 0.584738 9.29384 0.460914Z" fill="#0094B6"/>
</svg>
