<svg width="18" height="18" viewBox="0 0 18 18" fill="none" xmlns="http://www.w3.org/2000/svg">
    <path fill-rule="evenodd" clip-rule="evenodd" d="M15.1757 3.17583C15.41 2.94151 15.7899 2.94151 16.0242 3.17583L17.8242 4.97583C18.0586 5.21014 18.0586 5.59004 17.8242 5.82435L7.62426 16.0243C7.38994 16.2587 7.01004 16.2587 6.77573 16.0243L0.175736 9.42435C-0.0585786 9.19003 -0.0585786 8.81014 0.175736 8.57582L1.97573 6.77582C2.21005 6.54151 2.58995 6.54151 2.82426 6.77582L7.19999 11.1516L15.1757 3.17583Z" fill="#19304E"/>
    <path fill-rule="evenodd" clip-rule="evenodd" d="M0.37039 13.2458C0.594594 13.1529 0.852664 13.2042 1.02426 13.3758L4.62426 16.9758C4.79586 17.1474 4.84719 17.4055 4.75432 17.6297C4.66145 17.8539 4.44267 18.0001 4.2 18.0001H0.599999C0.268629 18.0001 0 17.7315 0 17.4001V13.8001C0 13.5574 0.146185 13.3386 0.37039 13.2458Z" fill="#00C5DC"/>
    <path fill-rule="evenodd" clip-rule="evenodd" d="M17.6296 9.64582C17.4054 9.55295 17.1473 9.60428 16.9757 9.77588L9.77574 16.9759C9.60415 17.1475 9.55281 17.4055 9.64568 17.6297C9.73855 17.854 9.95733 18.0001 10.2 18.0001H17.4C17.7314 18.0001 18 17.7315 18 17.4001V10.2001C18 9.95747 17.8538 9.73869 17.6296 9.64582Z" fill="#00C5DC"/>
    <path fill-rule="evenodd" clip-rule="evenodd" d="M0 0.599999C0 0.268629 0.268629 0 0.599999 0H13.8C14.0427 0 14.2614 0.146185 14.3543 0.37039C14.4472 0.594594 14.3958 0.852664 14.2242 1.02426L7.62426 7.62426C7.38994 7.85857 7.01004 7.85857 6.77573 7.62426L2.4 3.24852L1.02426 4.62426C0.852664 4.79586 0.594594 4.84719 0.37039 4.75432C0.146185 4.66145 0 4.44267 0 4.2V0.599999Z" fill="#00C5DC"/>
</svg>