<svg width="16" height="16" viewBox="0 0 16 16" fill="none" xmlns="http://www.w3.org/2000/svg">
    <path fill-rule="evenodd" clip-rule="evenodd" d="M1.6 0.799999C0.716344 0.799999 0 1.51634 0 2.4V13.6C0 14.4837 0.716344 15.2 1.6 15.2H12C13.7673 15.2 15.2 13.7673 15.2 12V10.1859C15.6782 9.9093 16 9.39222 16 8.8C16 8.20777 15.6782 7.6907 15.2 7.41405V5.6C15.2 3.83269 13.7673 2.4 12 2.4C12 1.51634 11.2837 0.799999 10.4 0.799999H1.6ZM1.6 4V13.6H12C12.8837 13.6 13.6 12.8837 13.6 12V10.4H10.4C9.51635 10.4 8.8 9.68365 8.8 8.8C8.8 7.91634 9.51635 7.2 10.4 7.2H13.6V5.6C13.6 4.71634 12.8837 4 12 4L1.6 4Z" fill="#19304E"/>
</svg>
