<svg width="16" height="16" viewBox="0 0 16 16" fill="none" xmlns="http://www.w3.org/2000/svg">
    <path d="M2.4 0C2.84183 0 3.2 0.358172 3.2 0.8V1.6H15.2C15.6418 1.6 16 1.95817 16 2.4C16 2.84183 15.6418 3.2 15.2 3.2H3.2V4C3.2 4.44183 2.84183 4.8 2.4 4.8C1.95817 4.8 1.6 4.44183 1.6 4V3.2H0.8C0.358172 3.2 0 2.84183 0 2.4C0 1.95817 0.358172 1.6 0.8 1.6H1.6V0.8C1.6 0.358172 1.95817 0 2.4 0Z" fill="#0094B6"/>
    <path d="M0.8 12.8C0.358172 12.8 0 13.1582 0 13.6C0 14.0418 0.358172 14.4 0.8 14.4H7.2V15.2C7.2 15.6418 7.55817 16 8 16C8.44183 16 8.8 15.6418 8.8 15.2V14.4H15.2C15.6418 14.4 16 14.0418 16 13.6C16 13.1582 15.6418 12.8 15.2 12.8H8.8V12C8.8 11.5582 8.44183 11.2 8 11.2C7.55817 11.2 7.2 11.5582 7.2 12V12.8H0.8Z" fill="#0094B6"/>
    <path d="M0 8C0 7.55817 0.358172 7.2 0.8 7.2H12.8V6.4C12.8 5.95817 13.1582 5.6 13.6 5.6C14.0418 5.6 14.4 5.95817 14.4 6.4V7.2H15.2C15.6418 7.2 16 7.55817 16 8C16 8.44183 15.6418 8.8 15.2 8.8H14.4V9.6C14.4 10.0418 14.0418 10.4 13.6 10.4C13.1582 10.4 12.8 10.0418 12.8 9.6V8.8H0.8C0.358172 8.8 0 8.44183 0 8Z" fill="#0094B6"/>
</svg>
