<svg width="16" height="16" viewBox="0 0 16 16" fill="none" xmlns="http://www.w3.org/2000/svg">
    <path d="M6 5.2C6 4.09543 6.89543 3.2 8 3.2C9.10457 3.2 10 4.09543 10 5.2V6C10 7.10457 9.10457 8 8 8C6.89543 8 6 7.10457 6 6V5.2Z" fill="#19304E"/>
    <path fill-rule="evenodd" clip-rule="evenodd" d="M0 8C0 3.58172 3.58172 0 8 0C12.4183 0 16 3.58172 16 8C16 12.4183 12.4183 16 8 16C3.58172 16 0 12.4183 0 8ZM8 1.6C4.46538 1.6 1.6 4.46538 1.6 8C1.6 9.62311 2.20422 11.1051 3.2 12.2333V12C3.2 10.2327 4.63269 8.8 6.4 8.8H9.6C11.3673 8.8 12.8 10.2327 12.8 12V12.2333C13.7958 11.1051 14.4 9.62311 14.4 8C14.4 4.46538 11.5346 1.6 8 1.6ZM11.2 13.5438V12C11.2 11.1163 10.4837 10.4 9.6 10.4H6.4C5.51634 10.4 4.8 11.1163 4.8 12V13.5438C5.74135 14.0883 6.83428 14.4 8 14.4C9.16572 14.4 10.2586 14.0883 11.2 13.5438Z" fill="#19304E"/>
</svg>
