<svg width="138" height="18" viewBox="0 0 138 18" fill="none" xmlns="http://www.w3.org/2000/svg">
    <path fill-rule="evenodd" clip-rule="evenodd" d="M15.1757 3.17583C15.41 2.94151 15.7899 2.94151 16.0242 3.17583L17.8242 4.97583C18.0586 5.21014 18.0586 5.59004 17.8242 5.82435L7.62426 16.0243C7.38994 16.2587 7.01004 16.2587 6.77573 16.0243L0.175736 9.42435C-0.0585786 9.19003 -0.0585786 8.81014 0.175736 8.57582L1.97573 6.77582C2.21005 6.54151 2.58995 6.54151 2.82426 6.77582L7.19999 11.1516L15.1757 3.17583Z" fill="#19304E"/>
    <path fill-rule="evenodd" clip-rule="evenodd" d="M0.37039 13.2458C0.594594 13.1529 0.852664 13.2042 1.02426 13.3758L4.62426 16.9758C4.79586 17.1474 4.84719 17.4055 4.75432 17.6297C4.66145 17.8539 4.44267 18.0001 4.2 18.0001H0.599999C0.268629 18.0001 0 17.7315 0 17.4001V13.8001C0 13.5574 0.146185 13.3386 0.37039 13.2458Z" fill="#00C5DC"/>
    <path fill-rule="evenodd" clip-rule="evenodd" d="M17.6296 9.64582C17.4054 9.55295 17.1473 9.60428 16.9757 9.77588L9.77574 16.9759C9.60415 17.1475 9.55281 17.4055 9.64568 17.6297C9.73855 17.854 9.95733 18.0001 10.2 18.0001H17.4C17.7314 18.0001 18 17.7315 18 17.4001V10.2001C18 9.95747 17.8538 9.73869 17.6296 9.64582Z" fill="#00C5DC"/>
    <path fill-rule="evenodd" clip-rule="evenodd" d="M0 0.599999C0 0.268629 0.268629 0 0.599999 0H13.8C14.0427 0 14.2614 0.146185 14.3543 0.37039C14.4472 0.594594 14.3958 0.852664 14.2242 1.02426L7.62426 7.62426C7.38994 7.85857 7.01004 7.85857 6.77573 7.62426L2.4 3.24852L1.02426 4.62426C0.852664 4.79586 0.594594 4.84719 0.37039 4.75432C0.146185 4.66145 0 4.44267 0 4.2V0.599999Z" fill="#00C5DC"/>
    <path d="M83.1633 4.16464C84.4766 4.16464 85.5445 4.6877 86.2629 5.57699V4.37407H88.329V13.6126H86.1051V12.5861C85.4046 13.3355 84.4238 13.7712 83.2156 13.7712C80.5715 13.7712 78.6448 11.7142 78.6448 8.97685C78.6448 6.22213 80.5187 4.16464 83.1633 4.16464ZM83.5133 11.8189C85.1069 11.8189 86.1927 10.6507 86.1927 8.97685C86.1927 7.30297 85.1069 6.13478 83.5133 6.13478C81.9899 6.13478 80.8692 7.3377 80.8692 8.97685C80.8692 10.5981 81.9899 11.8189 83.5133 11.8189Z" fill="#19304E"/>
    <path d="M132.765 4.16464C134.079 4.16464 135.147 4.6877 135.865 5.57699V4.37407H137.931V13.6126H135.707V12.5861C135.007 13.3355 134.026 13.7712 132.818 13.7712C130.174 13.7712 128.247 11.7142 128.247 8.97685C128.247 6.22213 130.121 4.16464 132.765 4.16464ZM133.115 11.8189C134.709 11.8189 135.795 10.6507 135.795 8.97685C135.795 7.30297 134.709 6.13478 133.115 6.13478C131.592 6.13478 130.471 7.3377 130.471 8.97685C130.471 10.5981 131.592 11.8189 133.115 11.8189Z" fill="#19304E"/>
    <path d="M95.373 4.16464C94.0627 4.16464 92.9972 4.68817 92.2804 5.57828V4.37426H90.219V15.7499H92.4379V12.5938C93.1368 13.3439 94.1153 13.78 95.3209 13.78C97.959 13.78 99.8814 11.7211 99.8814 8.98125C99.8814 6.22401 98.0117 4.16464 95.373 4.16464ZM95.0238 11.8259C93.4338 11.8259 92.3504 10.6567 92.3504 8.98125C92.3504 7.30584 93.4338 6.13659 95.0238 6.13659C96.5438 6.13659 97.662 7.34061 97.662 8.98125C97.662 10.604 96.5438 11.8259 95.0238 11.8259Z" fill="#19304E"/>
    <path d="M112.03 13.7631C114.476 13.7631 116.014 12.2273 116.433 10.831L114.442 10.0283C114.145 11.0754 113.271 11.7912 112.083 11.7912C110.597 11.7912 109.444 10.674 109.444 8.96387C109.444 7.2537 110.597 6.13659 112.065 6.13659C113.253 6.13659 114.092 6.85235 114.389 7.91681L116.381 7.1315C115.962 5.70048 114.424 4.16464 112.03 4.16464C109.252 4.16464 107.225 6.25878 107.225 8.98126C107.225 11.7037 109.287 13.7631 112.03 13.7631Z" fill="#19304E"/>
    <path d="M73.2933 13.7631C75.7397 13.7631 77.277 12.2273 77.6968 10.831L75.7049 10.0283C75.4078 11.0754 74.5341 11.7912 73.3459 11.7912C71.8607 11.7912 70.7078 10.674 70.7078 8.96387C70.7078 7.2537 71.8607 6.13659 73.3285 6.13659C74.5167 6.13659 75.3552 6.85235 75.6522 7.91681L77.6441 7.1315C77.2249 5.70048 75.687 4.16464 73.2933 4.16464C70.5156 4.16464 68.4884 6.25878 68.4884 8.98126C68.4884 11.7037 70.5503 13.7631 73.2933 13.7631Z" fill="#19304E"/>
    <path d="M104.611 13.8623H106.062V11.9251H105.048C104.053 11.9251 103.511 11.3494 103.511 10.285V6.56807H105.992V4.66566H103.581V2.27499H101.32V3.78515C101.32 6.66515 101.32 6.78975 101.32 10.5168C101.32 12.5414 102.41 13.8623 104.611 13.8623Z" fill="#19304E"/>
    <path d="M38.9128 13.78C41.7784 13.78 43.8229 11.7206 43.8229 8.98074C43.8229 6.2235 41.7784 4.16464 38.9128 4.16464C36.0298 4.16464 34.0031 6.2235 34.0031 8.98074C34.0031 11.7206 36.0298 13.78 38.9128 13.78ZM38.9302 11.808C37.3227 11.808 36.222 10.6214 36.222 8.98074C36.222 7.32272 37.3227 6.15346 38.9302 6.15346C40.5202 6.15346 41.5862 7.32272 41.5862 8.96336C41.5862 10.6214 40.5028 11.808 38.9302 11.808Z" fill="#19304E"/>
    <path d="M29.4491 13.78C31.7554 13.78 33.258 12.6976 33.258 10.8658C33.258 7.49757 28.2083 8.45721 28.2083 6.7818C28.2083 6.2235 28.6454 5.87431 29.4665 5.87431C30.2354 5.87431 30.7769 6.20612 31.0218 6.90399L32.961 6.15346C32.5765 4.89728 31.2835 4.16464 29.5013 4.16464C27.335 4.16464 25.9367 5.2112 25.9367 6.88661C25.9367 10.0452 30.9865 9.20775 30.9865 11.0227C30.9865 11.6685 30.4277 12.035 29.5365 12.035C28.4179 12.035 27.7016 11.5289 27.4399 10.6735L25.5001 11.4241C26.0068 12.9773 27.4572 13.78 29.4491 13.78Z" fill="#19304E"/>
    <rect x="44.8682" y="2.27499" width="2.17304" height="11.5738" fill="#19304E"/>
    <path d="M52.8404 11.5815L55.4443 4.16464H57.7506L54.2382 13.3612L54.0528 13.8488H51.9278H51.6L51.4252 13.3612L48.1751 4.16464H50.4646L52.8404 11.5815Z" fill="#19304E"/>
    <path d="M119.684 5.58844C120.403 4.69196 121.471 4.16468 122.784 4.16468C125.428 4.16468 127.066 6.23879 127.066 9.01578C127.066 9.05227 127.066 13.5764 127.065 13.6127H124.84C124.841 13.5765 124.842 9.05235 124.842 9.01578C124.842 7.36339 123.957 6.15074 122.434 6.15074C120.84 6.15074 119.754 7.32837 119.754 9.01578C119.754 9.05239 119.755 9.08875 119.756 9.12487H119.744V13.689H117.618V2.25H119.684V5.58844Z" fill="#19304E"/>
    <path fill-rule="evenodd" clip-rule="evenodd" d="M63.8984 4.27721C63.5397 4.20334 63.1621 4.16464 62.7692 4.16464C59.8862 4.16464 57.8596 6.22349 57.8596 8.98078C57.8596 11.7206 59.8862 13.78 62.7692 13.78C63.2231 13.78 63.6563 13.7283 64.0641 13.6305C65.0452 13.322 66.138 12.6505 66.7716 11.3851L64.9755 10.6582C64.5142 11.3715 63.7403 11.808 62.7867 11.808C61.4741 11.808 60.4994 11.0169 60.1859 9.83343H67.2431C67.2851 9.53899 67.3075 9.22437 67.3075 8.88864C67.3075 5.81493 65.4238 4.61997 63.8984 4.27721ZM65.0534 7.94384H60.2387C60.5993 6.8558 61.5407 6.15348 62.7867 6.15348C64.0221 6.15348 64.9455 6.88094 65.0534 7.94384Z" fill="#19304E"/>
</svg>